<?xml version="1.0" encoding="UTF-8"?><svg id="_レイヤー_1" xmlns="http://www.w3.org/2000/svg" viewBox="0 0 1376.14 369.61"><defs><style>.cls-1{fill-rule:evenodd;}.cls-1,.cls-2{fill:#fff;}</style></defs><rect class="cls-2" x="1006.84" y="199.71" width="274.62" height="16.09"/><rect class="cls-2" x="975.27" y="16.14" width="148.37" height="16.09"/><rect class="cls-2" x="1259.33" y="62.03" width="85.25" height="16.09"/><rect class="cls-2" x="1006.84" y="245.6" width="85.25" height="16.09"/><rect class="cls-2" x="1227.77" y="245.6" width="85.25" height="16.09"/><rect class="cls-2" x="1006.84" y="107.92" width="85.25" height="16.09"/><rect class="cls-2" x="1259.33" y="291.49" width="85.25" height="16.09"/><rect class="cls-2" x="1227.77" y="16.14" width="148.37" height="16.09"/><rect class="cls-2" x="975.27" y="62.03" width="148.37" height="16.09"/><rect class="cls-2" x="1227.77" y="107.92" width="85.25" height="16.09"/><rect class="cls-2" x="1227.77" y="337.39" width="148.37" height="16.09"/><rect class="cls-2" x="1006.84" y="153.81" width="274.62" height="16.09"/><rect class="cls-2" x="975.27" y="337.39" width="148.37" height="16.09"/><rect class="cls-2" x="975.27" y="291.49" width="148.37" height="16.09"/><rect class="cls-2" x="1317.73" y="242.17" width="0" height="22.95"/><rect class="cls-2" x="1254.61" y="311.01" width="94.69" height="0"/><rect class="cls-2" x="1317.73" y="104.49" width="0" height="22.95"/><rect class="cls-2" x="970.56" y="311.01" width="157.81" height="0"/><path class="cls-2" d="M219.04,12.71C98.26,12.71,0,89.92,0,184.8s98.26,172.1,219.04,172.1,219.04-77.21,219.04-172.1S339.83,12.71,219.04,12.71h0ZM234.69,294.32c0,8.64-7.01,15.65-15.65,15.65s-15.65-7.01-15.65-15.65v-.04c0-.08.06-.15.06-.23,0-.04-.02-.08-.02-.15.21-8.42,7.12-15.25,15.61-15.25s15.4,6.8,15.61,15.25c0,.04-.02.08-.02.15,0,.08.04.15.06.23v.04ZM203.4,75.28c0-8.64,7.01-15.65,15.65-15.65s15.65,7.01,15.65,15.65v.04c0,.08-.04.13-.06.21,0,.04.02.08.02.15-.21,8.42-7.12,15.25-15.61,15.25s-15.4-6.8-15.61-15.25c0-.04.02-.08.02-.15s-.04-.13-.06-.21v-.06.02ZM226.86,264.14v-33.11c19.61-3.31,35.09-18.79,38.42-38.42h33.11c2.46,9.52,9.23,17.33,18.18,21.06-9.75,32.94-35.7,58.89-68.64,68.64-3.73-8.95-11.54-15.69-21.06-18.18h0ZM190.17,282.31c-32.94-9.75-58.89-35.7-68.64-68.64,8.95-3.73,15.69-11.54,18.18-21.06h33.11c3.31,19.61,18.79,35.09,38.42,38.42v33.11c-9.52,2.46-17.33,9.23-21.06,18.18h0ZM211.23,105.46v33.11c-19.61,3.31-35.09,18.79-38.42,38.42h-33.11c-2.46-9.52-9.23-17.33-18.18-21.06,9.75-32.94,35.7-58.89,68.64-68.64,3.73,8.95,11.54,15.69,21.06,18.18h0ZM219.04,216.1c-17.25,0-31.3-14.03-31.3-31.3s14.03-31.3,31.3-31.3,31.3,14.03,31.3,31.3-14.03,31.3-31.3,31.3ZM109.53,169.15c8.64,0,15.65,7.01,15.65,15.65s-7.01,15.65-15.65,15.65-15.65-7.01-15.65-15.65,7.01-15.65,15.65-15.65ZM328.57,200.45c-8.64,0-15.65-7.01-15.65-15.65s7.01-15.65,15.65-15.65,15.65,7.01,15.65,15.65-7.01,15.65-15.65,15.65ZM298.39,176.99h-33.11c-3.31-19.61-18.79-35.09-38.42-38.42v-33.11c9.52-2.46,17.33-9.23,21.06-18.18,32.94,9.75,58.89,35.7,68.64,68.64-8.95,3.73-15.69,11.54-18.18,21.06h0ZM105.9,153.88c-15.54,1.81-27.68,14.91-27.68,30.92s12.13,29.11,27.68,30.92c7.25,26.56,23.57,49.33,45.45,64.83-78.86-14.26-135.7-52.67-135.7-95.75s56.85-81.49,135.7-95.75c-21.88,15.5-38.19,38.27-45.45,64.83h0ZM332.2,215.72c15.54-1.81,27.68-14.91,27.68-30.92s-12.13-29.11-27.68-30.92c-7.25-26.56-23.57-49.33-45.45-64.83,78.86,14.26,135.7,52.67,135.7,95.75s-56.85,81.49-135.7,95.75c21.88-15.5,38.19-38.27,45.45-64.83h0ZM219.05,28.33c84,0,156.26,39.36,187.24,95.39-33.17-29.25-89.66-50.15-156.7-55.08-3.05-14.07-15.56-24.66-30.56-24.66s-27.49,10.57-30.56,24.66c-67.04,4.93-123.53,25.82-156.7,55.08C62.78,67.72,135.02,28.33,219.02,28.33h.03ZM219.05,341.27c-84,0-156.26-39.36-187.24-95.39,33.17,29.25,89.66,50.15,156.7,55.08,3.05,14.07,15.56,24.66,30.56,24.66s27.49-10.57,30.56-24.66c67.04-4.93,123.53-25.82,156.7-55.08-31,56-103.24,95.39-187.24,95.39h-.03Z"/><path class="cls-1" d="M687.83,354.32v8.65c0,3.65,2.97,6.64,6.62,6.64s6.64-2.99,6.64-6.64v-8.65c23.65-6.8,40.08-19,50.85-33.84,17.23-23.77,19.9-54.6,13.38-82.25-5.31-22.47-16.76-42.67-30.95-55.36l.07-.05c29.92,18.29,53.47,39.86,60.1,46.15,1.78,39.66,27.25,60.28,27.25,60.28,2.84,2.32,7.02,1.91,9.34-.93,2.31-2.82,1.89-7-.93-9.33,0,0-21.92-18.26-22.49-53.01-.03-1.74-.73-3.39-1.96-4.61,0,0-17.54-17.43-43.4-35.93,18.64,3.52,43.33,5.34,64.61-2.54,20.06-7.42,43.63-26.07,54.04-47.13,7.58-15.32,8.5-31.81-2.12-46.72-10.24-14.39-28.41-17.08-49.17-12.41-34.62,7.78-76.71,35.65-91.2,45.77-1.68-1.84-3.52-3.58-5.49-5.19,6.84-8,10.9-18.14,10.9-29.14,0-15.77-8.38-29.79-21.23-38.22,5.89-16.83,17.21-27.75,27.22-33.09,3.32-1.78,6.46-2.92,9.14-3.4,1.39-.23,2.54-.53,3.29-.12,3.19,1.79,7.24.66,9.03-2.52,1.79-3.2.66-7.25-2.52-9.04-3.72-2.07-10.49-2.54-18.47.37-13.19,4.8-30.93,18.42-39.7,42.04-5.08-1.66-10.52-2.56-16.21-2.56s-11.14.9-16.21,2.56c-8.75-23.62-26.5-37.24-39.7-42.04-7.98-2.9-14.75-2.44-18.47-.37-3.19,1.79-4.32,5.84-2.52,9.04,1.79,3.19,5.84,4.32,9.03,2.52.75-.41,1.89-.12,3.29.12,2.69.48,5.83,1.63,9.14,3.4,10.01,5.34,21.33,16.26,27.22,33.09-12.85,8.43-21.21,22.45-21.21,38.22,0,11,4.05,21.14,10.89,29.14-1.97,1.61-3.82,3.35-5.49,5.19-14.49-10.12-56.57-37.99-91.2-45.77-20.76-4.66-38.93-1.97-49.17,12.41-10.62,14.9-9.71,31.4-2.12,46.72,10.41,21.06,33.97,39.71,54.04,47.13,21.28,7.88,45.97,6.06,64.61,2.54-25.84,18.5-43.4,35.93-43.4,35.93-1.23,1.23-1.93,2.87-1.96,4.61-.56,34.75-22.49,53.01-22.49,53.01-2.82,2.32-3.24,6.51-.91,9.33,2.31,2.84,6.49,3.25,9.33.93,0,0,25.47-20.61,27.25-60.28,6.62-6.29,30.17-27.86,60.1-46.15l.07.05c-14.19,12.7-25.64,32.89-30.93,55.36-6.54,27.65-3.87,58.49,13.36,82.25,10.77,14.84,27.22,27.03,50.87,33.84h0ZM732.06,322.96c-24.98,2.84-49.96,3-74.93.25,9.26,8.41,21.56,15.09,37.32,19.19,15.93-4.15,28.31-10.9,37.61-19.43h0ZM637.3,291.72c1.78,5.73,4.22,11.25,7.39,16.45,33.24,5.18,66.47,4.9,99.69-.25,3.1-5.13,5.49-10.57,7.24-16.2-38.1,10.75-76.21,10.7-114.31,0h0ZM754.61,253.75c-40.1,15.38-80.21,15.53-120.32.07-.91,7.68-1,15.48-.08,23.13,40.16,12.68,80.32,12.76,120.49-.02.91-7.67.83-15.48-.08-23.18h0ZM747.88,226.59c-35.61,16.65-71.25,16.68-106.86.03-1.71,4.48-3.17,9.13-4.33,13.89,38.5,15.47,77.01,15.32,115.52-.05-1.16-4.76-2.62-9.41-4.33-13.87h0ZM742.38,214.5c-5.28-9.84-11.9-18.21-19.35-24-8.31,4.22-18.07,6.67-28.58,6.67s-20.26-2.46-28.58-6.67c-7.47,5.79-14.09,14.17-19.37,24.05,31.96,14.92,63.91,14.89,95.87-.05h0ZM694.45,117.34c22.97,0,42.19,14.5,42.19,33.29s-19.22,33.29-42.19,33.29-42.19-14.52-42.19-33.29,19.22-33.29,42.19-33.29ZM745.92,167.92c14.82,4.56,48.82,12.78,76.42,2.56,17.33-6.41,37.77-22.4,46.78-40.58,5.36-10.87,6.47-22.59-1.06-33.16-7.3-10.26-20.65-10.49-35.46-7.15-33.03,7.42-73.16,34.25-86.66,43.78,2.56,5.36,3.97,11.2,3.97,17.26s-1.41,11.92-3.98,17.29h0ZM642.98,133.37c-13.51-9.53-53.64-36.36-86.66-43.78-14.8-3.34-28.16-3.1-35.46,7.15-7.53,10.57-6.42,22.29-1.05,33.16,8.99,18.17,29.44,34.17,46.77,40.58,27.6,10.22,61.6,2.01,76.44-2.56-2.59-5.38-4-11.22-4-17.29s1.41-11.9,3.97-17.26h0ZM721.64,110.03c-8-3.78-17.28-5.96-27.18-5.96s-19.19,2.17-27.18,5.96c-5.58-5.86-8.99-13.53-8.99-21.96,0-18.5,16.33-33.29,36.18-33.29s36.19,14.79,36.19,33.29c0,8.43-3.44,16.1-9.01,21.96h0Z"/></svg>
